<?xml version="1.0" encoding="utf-8"?>
<!-- Generator: Adobe Illustrator 16.0.0, SVG Export Plug-In . SVG Version: 6.00 Build 0)  -->
<!DOCTYPE svg PUBLIC "-//W3C//DTD SVG 1.1//EN" "http://www.w3.org/Graphics/SVG/1.1/DTD/svg11.dtd">
<svg version="1.1" xmlns="http://www.w3.org/2000/svg" xmlns:xlink="http://www.w3.org/1999/xlink" x="0px" y="0px"
	 width="407.25px" height="190.962px" viewBox="0 0 407.25 190.962" enable-background="new 0 0 407.25 190.962"
	 xml:space="preserve">
<g id="BACKGROUND">
</g>
<g id="OBJECTS">
	<g>
		<path fill="#5E0303" d="M219.261,134.977c0,0,0.113,5.232,1.546,9.415c0.479,1.396-0.256,2.883-1.79,3.551l-6.575,2.855
			C212.443,150.798,213.959,139.575,219.261,134.977z"/>
		<path fill="#D80E1D" d="M250.912,108.42l-1.308,6.854l-0.702,3.683c-0.644,3.396-3.358,6.262-7.144,7.55l-5.671,1.931
			c-10.592,3.604-18.377,11.396-20.761,20.802c-0.264,1.041-0.516,2.137-0.754,3.28v0.008c-1.764,8.419-2.793,19.328-2.14,28.684
			c0.219,3.146-2.08,6.036-5.63,7.028l-8.514,2.386c-1.416,0.396-2.933,0.443-4.375,0.137l-2.284-0.48
			c-2.567-0.543-4.626-2.142-5.491-4.247c-6.172-14.982-1.128-28.812,1.678-34.632c1.032-2.146,1.558-4.441,1.558-6.762v-3.376
			l11.894-39.016l1.009-0.539l3.254-1.741h36.823c2.161,0,4.114,0.661,5.62,1.741C250.18,103.291,251.416,105.781,250.912,108.42z"
			/>
		<path opacity="0.5" fill="#91B5C7" d="M249.604,115.274l-0.702,3.683c-0.644,3.396-3.358,6.262-7.144,7.55l-5.671,1.931
			c-10.592,3.604-18.377,11.396-20.761,20.802c-0.264,1.041-0.516,2.137-0.754,3.28c2.319-20.821,11.901-30.746,20.745-32.712
			C240.808,118.591,246.262,116.603,249.604,115.274z"/>
		<g>
			<path fill="#5E0303" d="M207.627,185.032l-9.305,2.608c-1.543,0.43-3.199,0.483-4.776,0.149l-2.499-0.527
				c-2.803-0.592-5.054-2.338-6.001-4.636c-0.171-0.418-0.33-0.835-0.487-1.253c0.416,1.537,0.934,3.094,1.58,4.664
				c0.867,2.102,2.924,3.7,5.49,4.243l2.288,0.482c1.441,0.305,2.958,0.257,4.371-0.139l8.515-2.386
				c3.326-0.933,5.551-3.519,5.641-6.428C211.362,183.291,209.692,184.452,207.627,185.032z"/>
		</g>
		<g>
			<path fill="#5E0303" d="M242.354,99.967h-0.902c3.921,1.331,6.484,4.882,5.771,8.715l-2.154,11.566
				c-0.494,2.651-2.115,5.006-4.471,6.652l1.161-0.395c3.788-1.29,6.5-4.154,7.146-7.55l2.01-10.541
				C251.757,103.984,247.688,99.967,242.354,99.967z"/>
		</g>
		<path opacity="0.5" fill="#B6E4FA" d="M247.972,101.71h-45.696l3.254-1.741h36.824C244.515,99.969,246.468,100.628,247.972,101.71
			z"/>
		<path opacity="0.5" fill="#91B5C7" d="M194.268,186.038c-6.171-14.986-1.126-28.815,1.677-34.634
			c1.035-2.147,1.562-4.443,1.562-6.764v-3.376l11.821-38.789h-8.13l-11.82,38.789v3.376c0,2.32-0.527,4.616-1.563,6.764
			c-2.803,5.818-7.849,19.647-1.677,34.634c0.867,2.102,2.924,3.7,5.49,4.243l2.288,0.482c1.441,0.305,2.958,0.257,4.371-0.139
			l1.34-0.376C197.125,189.681,195.119,188.102,194.268,186.038z"/>
		<path fill="#5E0303" d="M211.683,117.744c-2.204,8.248-6.622,16.493-11.347,21.678c-3.912,4.288-7.834,6.255-10.771,4.601
			c-2.689-1.511-4.069-5.808-4.417-10.952c-0.368-5.472,0.417-12.113,2.149-17.971c0.693-2.35,1.496-4.434,2.383-6.269
			c0.276-0.574,0.562-1.123,0.855-1.65c0.718-1.29,1.606-2.467,2.609-3.477c2.249-2.272,6.13-3.602,10.489-3.696l1.897-0.041
			c4.684,0.148,6.962,1.84,7.402,6.752c0.062,0.708,0.09,1.449,0.082,2.234C212.986,111.505,212.563,114.447,211.683,117.744z"/>
		<path fill="#D80E1D" d="M205.289,115.869c-1.695,7.541-4.866,15.227-8.156,20.183c-2.721,4.102-6.837,7.267-8.747,5.975
			c-2.357-1.173-3.02-6.1-3.109-10.692c-0.091-4.885,2.545-10.895,3.861-16.258c0.527-2.155,1.12-4.078,1.76-5.779
			c0.2-0.535,0.406-1.044,0.615-1.537c0.513-1.205,1.139-2.318,1.834-3.288c1.561-2.183,4.18-3.626,7.083-3.994l1.263-0.158
			c3.113-0.169,4.581,1.202,4.736,5.583c0.023,0.629,0.021,1.293-0.007,1.996C206.331,110.191,205.968,112.857,205.289,115.869z"/>
		<path fill="#5E0303" d="M203.361,115.869c-1.697,7.541-4.867,15.227-8.156,20.183c-2.722,4.102-5.386,6.115-7.294,4.825
			c-1.748-1.183-2.545-4.95-2.634-9.543c-0.091-4.885,0.616-10.895,1.932-16.258c0.528-2.155,1.12-4.078,1.761-5.779
			c0.2-0.535,0.406-1.044,0.615-1.537c0.513-1.205,1.139-2.318,1.834-3.288c1.56-2.183,4.179-3.626,7.082-3.994l1.265-0.158
			c3.112-0.169,4.581,1.202,4.735,5.583c0.023,0.629,0.021,1.293-0.008,1.996C204.403,110.191,204.04,112.857,203.361,115.869z"/>
		<polygon fill="#88B79C" points="198.12,124.128 203.142,105.843 192.91,106.354 188.305,123.121 		"/>
		<g>
			<g>
				<text transform="matrix(1.1882 0 0 1 193.6743 110.2822)" font-family="'Akashi'" font-size="2.1096">36.8</text>
				<text transform="matrix(1.1882 0 0 1 198.7104 109.3252)" font-family="'Akashi'" font-size="1.0548">o</text>
				<text transform="matrix(1.1882 0 0 1 199.519 110.0088)" font-family="'Akashi'" font-size="1.7215">C</text>
			</g>
			<g>
				<rect x="193.991" y="107.712" width="0.194" height="0.413"/>
				<rect x="193.755" y="107.712" width="0.192" height="0.413"/>
				<rect x="193.518" y="107.712" width="0.194" height="0.413"/>
				<rect x="193.28" y="107.712" width="0.195" height="0.413"/>
				<rect x="193.043" y="107.712" width="0.195" height="0.413"/>
				<rect x="194.228" y="107.831" width="0.104" height="0.171"/>
			</g>
			<text transform="matrix(1.1882 0 0 1 199.665 108.0537)" font-family="'Akashi'" font-size="0.3481">HEAD</text>
			
				<line fill="none" stroke="#231F20" stroke-width="0.5" stroke-miterlimit="10" x1="193.085" y1="110.923" x2="200.736" y2="110.923"/>
		</g>
		<g>
			<g>
				<text transform="matrix(1.1882 0 0 1 192.6479 114.8916)" font-family="'Akashi'" font-size="2.1096">36.0</text>
				<text transform="matrix(1.1882 0 0 1 197.686 113.9365)" font-family="'Akashi'" font-size="1.0548">o</text>
				<text transform="matrix(1.1882 0 0 1 198.4917 114.6201)" font-family="'Akashi'" font-size="1.7215">C</text>
			</g>
			<g>
				<rect x="192.966" y="112.32" width="0.193" height="0.418"/>
				<rect x="192.728" y="112.32" width="0.194" height="0.418"/>
				<rect x="192.491" y="112.32" width="0.195" height="0.418"/>
				<rect x="192.254" y="112.32" width="0.194" height="0.418"/>
				<rect x="192.018" y="112.32" width="0.193" height="0.418"/>
				<rect x="193.201" y="112.443" width="0.104" height="0.171"/>
			</g>
			<text transform="matrix(1.1882 0 0 1 198.6396 112.665)" font-family="'Akashi'" font-size="0.3481">HEAD</text>
			
				<line fill="none" stroke="#231F20" stroke-width="0.5" stroke-miterlimit="10" x1="192.059" y1="115.533" x2="199.71" y2="115.533"/>
		</g>
		<g>
			<path fill="#D80E1D" d="M191.893,131.39c-0.425,1.487-1.47,2.303-2.281,1.869c-0.751-0.405-1.037-1.754-0.682-3.056
				c0.359-1.314,1.274-2.219,2.091-1.994C191.904,128.451,192.322,129.891,191.893,131.39z"/>
			<g>
				<path fill="#D80E1D" d="M188.614,132.933c-0.225-0.584-0.297-1.33-0.199-2.107l-1.819,0.577
					c-0.13,1.488,0.043,2.934,0.499,4.087L188.614,132.933z"/>
				<path fill="#D80E1D" d="M190.134,134.13c-0.25,0.018-0.493-0.028-0.721-0.161c-0.223-0.13-0.411-0.322-0.563-0.561l-1.544,2.555
					c0.293,0.586,0.675,1.089,1.143,1.455c0.493,0.382,1.04,0.584,1.611,0.608L190.134,134.13z"/>
				<path fill="#D80E1D" d="M192.064,132.443c-0.385,0.794-0.916,1.347-1.467,1.575l-0.061,3.987
					c1.233-0.154,2.517-1.097,3.524-2.707L192.064,132.443z"/>
			</g>
			<g>
				<path fill="#D80E1D" d="M194.868,125.656l-0.925,0.851c0.619,1.146,0.857,2.79,0.571,4.579l0.897,0.86
					C195.967,129.507,195.707,127.207,194.868,125.656z"/>
				<path fill="#D80E1D" d="M189.456,124.921c-0.991,0.918-1.838,2.316-2.356,3.956l0.621-0.159c0.464-1.244,1.16-2.286,1.954-2.956
					L189.456,124.921z"/>
			</g>
		</g>
	</g>
	<g>
		<text transform="matrix(1 0 0 1 -4.127 86.7339)" fill="#494949" font-family="'Impact'" font-size="107.2033">EMPLOYEE</text>
	</g>
	<g>
		<text transform="matrix(1 0 0 1 29.0161 188.4189)" fill="#494949" font-family="'Impact'" font-size="107.2033">THE</text>
	</g>
	<g>
		<text transform="matrix(1 0 0 1 249.604 188.4189)" fill="#494949" font-family="'Impact'" font-size="107.2033">MO</text>
	</g>
</g>
</svg>
